<svg xmlns="http://www.w3.org/2000/svg" width="75" height="48" viewBox="0 0 75 48" fill="none">
    <g clip-path="url(#clip0_898_9823)">
      <path d="M46.0337 30.5829V35.4959H54.2626V39.5583H46.0337V48.0005H40.9922V26.3809H56.3706V30.5829H46.0337Z" fill="#FFFFFF"/>
      <path d="M62.3901 35.7498H65.1585C66.1998 35.7498 67.33 35.8514 68.2443 35.3055C69.0698 34.7977 69.5015 33.7948 69.5015 32.8553C69.5015 32.0048 68.9936 31.0907 68.2697 30.6464C67.4189 30.1132 65.9712 30.2402 65.0315 30.2402H62.3774V35.7498H62.3901ZM62.3901 48.0005H57.3486V26.3809H66.4538C68.3713 26.3809 70.327 26.4189 72.0032 27.4853C73.7684 28.6533 74.7462 30.7607 74.7462 32.868C74.7462 35.3309 73.3239 37.5906 71 38.4412L75.0002 47.9878H69.3872L66.0728 39.4441H62.3901V47.9878V48.0005Z" fill="#FFFFFF"/>
      <path d="M21.9692 26.4057H27.0107V34.8479H33.6903V26.4057H39.1382V0C27.5186 18.1666 0 17.0368 0 17.0368V48H21.9692V26.4057Z" fill="#FFFFFF"/>
      <path d="M27.0107 48.0008H33.6904V39.1016H27.0107V48.0008Z" fill="#FFFFFF"/>
    </g>
    <defs>
      <clipPath id="clip0_898_9823">
        <rect width="75" height="48" fill="white"/>
      </clipPath>
    </defs>
  </svg>
